<svg id="Layer_1" data-name="Layer 1" xmlns="http://www.w3.org/2000/svg" viewBox="0 0 1356 1356"><defs><style>.cls-1{fill:#4a5d93;}.cls-2{fill:#6e89ea;}</style></defs><path class="cls-1" d="M1081,538c-285,0-516,231-516,516s231,516,516,516,516-231,516-516S1366,538,1081,538Zm83,960.84c-206.18,0-373.31-167.13-373.31-373.3S957.78,752.24,1164,752.24s373.3,167.13,373.3,373.3S1370.13,1498.84,1164,1498.84Z" transform="translate(-282 -282)"/><path class="cls-2" d="M960,282c-374.45,0-678,303.55-678,678s303.55,678,678,678,678-303.55,678-678S1334.45,282,960,282Zm109,1262.5c-270.9,0-490.5-219.6-490.5-490.5S798.1,563.5,1069,563.5s490.5,219.6,490.5,490.5S1339.9,1544.5,1069,1544.5Z" transform="translate(-282 -282)"/><path class="cls-2" d="M1487.91,1164.27a.09.09,0,0,1,0,.14l-4.7,4.38-302.06,280.79a.1.1,0,0,1-.16-.07v-512a.1.1,0,0,1,.15-.08l301.36,222.8Z" transform="translate(-282 -282)"/></svg>