<?xml version="1.0" encoding="utf-8"?>
<!-- Generator: Adobe Illustrator 24.1.0, SVG Export Plug-In . SVG Version: 6.00 Build 0)  -->
<svg version="1.1" id="形状_2_1_" xmlns="http://www.w3.org/2000/svg" xmlns:xlink="http://www.w3.org/1999/xlink" x="0px"
	 y="0px" viewBox="0 0 512 130" style="enable-background:new 0 0 512 130;" xml:space="preserve">
<style type="text/css">
	.st0{fill-rule:evenodd;clip-rule:evenodd;fill:#004A9A;}
</style>
<g id="形状_2">
	<g>
		<path class="st0" d="M94.2,53.5h-18l-1.6,16.1h16.5c10.1,0,10.8,1.9,10.8,8.5v2.8H88.6c-13.1,0-20.4,4.6-20.4,17.4
			c0,10.9,6.3,18.8,18.1,18.8c4.3,0,10.9-0.7,18.2-4.7l0.7,4.1h16.1V78.2C121.2,60.5,116.4,53.5,94.2,53.5z M101.9,100.8
			c-2.9,1.3-5.2,2.6-9.1,2.6c-3.7,0-5.3-1.8-5.3-5.3c0-3.5,1.8-4.3,5.9-4.3h8.6L101.9,100.8L101.9,100.8z M486.3,53.5h-20.9
			l-17.7,28v-57l-19.3,3.2v88.5h19.3V86.8l17.7,29.5h20.9l-19.3-32.2L486.3,53.5z M332.9,52.6c-22.7,0-28.2,12.7-28.2,25.8v12.7
			c0,13.1,5.5,25.8,28.2,25.8c22.7,0,28.1-12.7,28.1-25.8V78.5C361,65.4,355.6,52.6,332.9,52.6z M341.7,93c0,4.5-2.3,8.1-8.8,8.1
			c-6.6,0-8.8-3.6-8.8-8.1V76.7c0-4.5,2.3-8,8.8-8c6.5,0,8.8,3.6,8.8,8V93z M69.8,53.5H55.2l0-8.1c0-4.2,0.4-6.4,6.4-6.4h8V22.9
			H56.8c-15.5,0-20.9,7.8-20.9,20.9v9.7h-9.6v16.1h9.6v46.7h19.3V69.6h12.9L69.8,53.5z M127.7,79.2v11.3c0,15.7,8.2,26.6,29,26.6
			c4.8,0,10.5-0.5,19.3-2.5V99c-10,1.7-12.9,2.1-17.7,2.1c-8.7,0-11.3-1.9-11.3-9.3V77.9c0-7.3,2.6-9.2,11.3-9.2
			c4.8,0,7.7,0.4,17.7,2.1V55.1c-8.8-2-14.5-2.5-19.3-2.5C135.9,52.6,127.7,63.5,127.7,79.2z M276.6,52.6c-4.9,0-10.3,0.8-14.5,2.3
			V24.5l-19.3,3.2v86.9c10.5,1.6,16.1,2.5,25.6,2.5c26.4,0,30.7-11.1,30.7-26.3V75.1C299.1,61.2,295.9,52.6,276.6,52.6z M279.8,90.9
			c0,6-1.3,10.4-10.7,10.4c-2.6,0-4.2,0-7-0.3V71.3c2.9-1.3,5.7-2.6,9.7-2.6c6.6,0,8,3.6,8,8L279.8,90.9L279.8,90.9z M394.7,52.6
			c-22.7,0-28.2,12.7-28.2,25.8v12.7c0,13.1,5.5,25.8,28.2,25.8c22.7,0,28.1-12.7,28.1-25.8V78.5C422.8,65.4,417.4,52.6,394.7,52.6z
			 M403.5,93c0,4.5-2.3,8.1-8.9,8.1c-6.6,0-8.8-3.6-8.8-8.1V76.7c0-4.5,2.3-8,8.8-8c6.5,0,8.9,3.6,8.9,8V93z M209,52.6
			c-21.2,0-27.4,11.3-27.4,25v12.9c0,15.7,8.2,26.6,29,26.6c9.5,0,14.5-0.5,24.1-2.5V99c-10,1.7-14.7,2.1-22.5,2.1
			c-8.7,0-11.3-1.9-11.3-9.3v-1.3h35.4V77.6C236.4,63.7,230.2,52.6,209,52.6z M217,77.6h-16.1v-2.5c0-4.5,1.5-8,8.1-8
			c6.6,0,8,3.6,8,8V77.6z"/>
	</g>
</g>
</svg>
