<?xml version="1.0" encoding="utf-8"?>
<!-- Generator: Adobe Illustrator 24.1.0, SVG Export Plug-In . SVG Version: 6.00 Build 0)  -->
<svg version="1.1" id="Layer_1" xmlns:serif="http://www.serif.com/"
	 xmlns="http://www.w3.org/2000/svg" xmlns:xlink="http://www.w3.org/1999/xlink" x="0px" y="0px" viewBox="0 0 530.5 168.3"
	 style="enable-background:new 0 0 530.5 168.3;" xml:space="preserve">
<style type="text/css">
	.st0{fill-rule:evenodd;clip-rule:evenodd;}
	.st1{fill-rule:evenodd;clip-rule:evenodd;fill:#F8981E;}
</style>
<g>
	<g transform="matrix(2.82109,0,0,2.82109,-607.254,-864.11)">
		<path class="st0" d="M222.2,351v-31.3h10.2c3.8,0,6.4,0.2,7.5,0.5c4.3,1.1,6.4,4.9,6.4,9.2c0,4.7-2.7,8.5-7.2,9.4
			c-1.5,0.3-3.5,0.4-6.3,0.4h-4.1V351H222.2z M228.5,325v8.8h3.5c2.5,0,4.1-0.2,5-0.5c1.7-0.7,2.7-2.1,2.7-3.9
			c0-2.2-1.3-3.8-3.5-4.2c-0.8-0.1-2.3-0.2-4.5-0.2H228.5z"/>
	</g>
	<g transform="matrix(2.82109,0,0,2.82109,-607.254,-864.11)">
		<path class="st0" d="M247.4,339.3c0-2,0.5-3.9,1.5-5.8c1-1.9,2.4-3.3,4.2-4.3s3.8-1.5,6-1.5c3.4,0,6.3,1.1,8.4,3.3
			c2.2,2.2,3.3,5,3.3,8.5c0,3.4-1.1,6.3-3.3,8.5c-2.2,2.3-5,3.4-8.4,3.4c-2.1,0-4.1-0.5-6-1.4c-1.9-0.9-3.3-2.3-4.3-4.1
			C247.9,344.1,247.4,341.9,247.4,339.3z M253.6,339.6c0,2.3,0.5,4,1.6,5.2c1.1,1.2,2.4,1.8,4,1.8c1.6,0,2.9-0.6,3.9-1.8
			c1.1-1.2,1.6-2.9,1.6-5.2c0-2.2-0.5-3.9-1.6-5.1c-1.1-1.2-2.4-1.8-3.9-1.8c-1.6,0-2.9,0.6-4,1.8
			C254.2,335.6,253.6,337.4,253.6,339.6z"/>
	</g>
	<g transform="matrix(2.82109,0,0,2.82109,-607.254,-864.11)">
		<path class="st0" d="M279.9,351h-6v-22.7h5.6v2.1c1.9-2.3,5.1-3.9,9.1-1.5l-1.9,5.3c-1-0.7-2-1-2.8-1c-0.8,0-1.6,0.2-2.1,0.7
			c-0.6,0.5-1,1.3-1.4,2.5c-0.3,1.2-0.5,3.8-0.5,7.6V351z"/>
	</g>
	<g transform="matrix(2.82109,0,0,2.82109,-607.254,-864.11)">
		<path class="st0" d="M312.6,351h-6v-11.6c0-2.5-0.1-4-0.4-4.8c-0.5-1.5-1.8-2.2-3.3-2.2c-2,0-3.8,1.1-4.5,3.1
			c-0.3,0.9-0.5,2.7-0.5,5.2V351h-6v-22.7h5.6v2.1c1.1-1.7,4.3-2.6,7.3-2.6c3.4,0,6.6,1.5,7.5,5c0.2,0.9,0.3,2.4,0.3,4.1V351z"/>
	</g>
	<g transform="matrix(2.82109,0,0,2.82109,-607.254,-864.11)">
		<path class="st1" d="M322.9,312.6h71.3c2,0,3.7,1.7,3.7,3.7v41.8c0,2-1.7,3.7-3.7,3.7h-71.3c-2,0-3.7-1.7-3.7-3.7v-41.8
			C319.2,314.3,320.9,312.6,322.9,312.6z"/>
	</g>
	<g transform="matrix(2.82109,0,0,2.82109,-607.254,-864.11)">
		<path class="st0" d="M371.9,351l0-29.9h5.8l-0.3,9.5c1.5-1.2,4-1.9,6.3-1.9c2.6,0.2,4.9,1,6.5,2.6c2,1.9,3,4.9,2.9,8.5
			c0,2.3-0.3,4.7-1.3,6.6c-1.5,2.9-4.5,5-7.8,5c-2.7,0-5.1-0.9-6.7-2.2v1.7H371.9z M377.6,339.8c0,4.4,1.8,7,5,7
			c3.4,0,4.6-3.3,4.6-6.6c0-3.3-0.9-7-4.8-7C378.9,333.3,377.6,336.4,377.6,339.8z"/>
	</g>
	<g transform="matrix(2.82109,0,0,2.82109,-607.254,-864.11)">
		<path class="st0" d="M345.5,351h-5.7v-11.2c0-2.3-0.1-3.9-0.4-4.6c-0.5-1.4-1.7-1.9-3.2-1.9c-2.2,0-3.6,1.2-4.2,3
			c-0.3,0.9-0.4,2.6-0.4,5v9.7h-5.7v-29.9h5.8v9.6c1.2-1,3.5-1.9,6.4-1.9c3.4,0,6.4,1.6,7.2,5c0.2,0.9,0.3,2.3,0.3,3.9V351z"/>
	</g>
	<g transform="matrix(2.82109,0,0,2.82109,-607.254,-864.11)">
		<path class="st0" d="M348.8,329.3h5.8v11.1c0,2.3,0.1,3.9,0.4,4.6c0.5,1.4,1.8,2,3.2,2c2.1,0,3.8-1.3,4.3-3
			c0.3-0.9,0.4-2.7,0.4-5.1v-9.6h5.8V351h-5.4v-2.3c-1.4,1.6-3.9,2.8-6.8,2.8c-3.5,0-6.4-1.6-7.2-4.9c-0.2-0.9-0.3-2.3-0.3-3.9
			V329.3z"/>
	</g>
</g>
</svg>
